<svg width="65" height="65" viewBox="0 0 65 65" fill="none" xmlns="http://www.w3.org/2000/svg">
<g clip-path="url(#clip0_115_653)">
<rect width="65" height="65" fill="white"/>
<path d="M32.5 38.1875C29.4531 38.1875 26.8125 35.75 26.8125 32.5C26.8125 29.4531 29.25 26.8125 32.5 26.8125C35.5469 26.8125 38.1875 29.25 38.1875 32.5C38.1875 35.5469 35.5469 38.1875 32.5 38.1875Z" fill="#191963"/>
<path fill-rule="evenodd" clip-rule="evenodd" d="M39.4062 18.6875H25.5938C23.9688 18.8906 23.1563 19.0937 22.5469 19.2969C21.7344 19.5 21.125 19.9062 20.5156 20.5156C20.0334 20.9978 19.8056 21.48 19.5302 22.0628C19.4577 22.2164 19.3816 22.3774 19.2969 22.5469C19.2655 22.6411 19.2292 22.7403 19.1903 22.8465C18.9778 23.4271 18.6875 24.2201 18.6875 25.5937V39.4062C18.8906 41.0312 19.0938 41.8437 19.2969 42.4531C19.5 43.2656 19.9062 43.875 20.5156 44.4844C20.9978 44.9666 21.48 45.1944 22.0628 45.4698C22.2166 45.5424 22.3773 45.6183 22.5469 45.7031C22.6411 45.7345 22.7403 45.7708 22.8465 45.8097C23.4271 46.0222 24.2201 46.3125 25.5938 46.3125H39.4062C41.0312 46.1094 41.8438 45.9062 42.4531 45.7031C43.2656 45.5 43.875 45.0937 44.4844 44.4844C44.9666 44.0022 45.1944 43.52 45.4698 42.9372C45.5424 42.7835 45.6184 42.6227 45.7031 42.4531C45.7346 42.3589 45.7708 42.2597 45.8097 42.1535C46.0222 41.5729 46.3125 40.7799 46.3125 39.4062V25.5937C46.1094 23.9687 45.9062 23.1562 45.7031 22.5469C45.5 21.7344 45.0937 21.125 44.4844 20.5156C44.0022 20.0334 43.52 19.8056 42.9372 19.5302C42.7837 19.4577 42.6224 19.3815 42.4531 19.2969C42.3589 19.2654 42.2597 19.2292 42.1535 19.1903C41.5729 18.9778 40.7799 18.6875 39.4062 18.6875ZM32.5 23.7656C27.625 23.7656 23.7656 27.625 23.7656 32.5C23.7656 37.375 27.625 41.2344 32.5 41.2344C37.375 41.2344 41.2344 37.375 41.2344 32.5C41.2344 27.625 37.375 23.7656 32.5 23.7656ZM43.4688 23.5625C43.4688 24.6843 42.5593 25.5937 41.4375 25.5937C40.3157 25.5937 39.4062 24.6843 39.4062 23.5625C39.4062 22.4407 40.3157 21.5312 41.4375 21.5312C42.5593 21.5312 43.4688 22.4407 43.4688 23.5625Z" fill="#191963"/>
<path fill-rule="evenodd" clip-rule="evenodd" d="M0 0H65V65H0V0ZM25.5938 15.6406H39.4062C41.2344 15.8437 42.4531 16.0469 43.4688 16.4531C44.6875 17.0625 45.5 17.4687 46.5156 18.4844C47.5312 19.5 48.1406 20.5156 48.5469 21.5312C48.9531 22.5469 49.3594 23.7656 49.3594 25.5937V39.4062C49.1562 41.2344 48.9531 42.4531 48.5469 43.4687C47.9375 44.6875 47.5312 45.5 46.5156 46.5156C45.5 47.5312 44.4844 48.1406 43.4688 48.5469C42.4531 48.9531 41.2344 49.3594 39.4062 49.3594H25.5938C23.7656 49.1562 22.5469 48.9531 21.5312 48.5469C20.3125 47.9375 19.5 47.5312 18.4844 46.5156C17.4688 45.5 16.8594 44.4844 16.4531 43.4687C16.0469 42.4531 15.6406 41.2344 15.6406 39.4062V25.5937C15.8437 23.7656 16.0469 22.5469 16.4531 21.5312C17.0625 20.3125 17.4688 19.5 18.4844 18.4844C19.5 17.4687 20.5156 16.8594 21.5312 16.4531C22.5469 16.0469 23.7656 15.6406 25.5938 15.6406Z" fill="#191963"/>
</g>
<defs>
<clipPath id="clip0_115_653">
<rect width="65" height="65" fill="white"/>
</clipPath>
</defs>
</svg>
