<svg width="203" height="50" viewBox="0 0 203 50" fill="none" xmlns="http://www.w3.org/2000/svg">
<rect width="203" height="50" fill="white"/>
<path d="M43.5116 31V18.4H48.9656C50.0936 18.4 51.0656 18.586 51.8816 18.958C52.6976 19.318 53.3276 19.84 53.7716 20.524C54.2156 21.208 54.4376 22.024 54.4376 22.972C54.4376 23.908 54.2156 24.718 53.7716 25.402C53.3276 26.074 52.6976 26.59 51.8816 26.95C51.0656 27.31 50.0936 27.49 48.9656 27.49H45.1316L46.4276 26.212V31H43.5116ZM51.5216 31L48.3716 26.428H51.4856L54.6716 31H51.5216ZM46.4276 26.536L45.1316 25.168H48.8036C49.7036 25.168 50.3756 24.976 50.8196 24.592C51.2636 24.196 51.4856 23.656 51.4856 22.972C51.4856 22.276 51.2636 21.736 50.8196 21.352C50.3756 20.968 49.7036 20.776 48.8036 20.776H45.1316L46.4276 19.39V26.536ZM61.3559 31.144C60.2519 31.144 59.2799 30.928 58.4399 30.496C57.6119 30.064 56.9699 29.476 56.5139 28.732C56.0579 27.976 55.8299 27.118 55.8299 26.158C55.8299 25.186 56.0519 24.328 56.4959 23.584C56.9519 22.828 57.5699 22.24 58.3499 21.82C59.1299 21.388 60.0119 21.172 60.9959 21.172C61.9439 21.172 62.7959 21.376 63.5519 21.784C64.3199 22.18 64.9259 22.756 65.3699 23.512C65.8139 24.256 66.0359 25.15 66.0359 26.194C66.0359 26.302 66.0299 26.428 66.0179 26.572C66.0059 26.704 65.9939 26.83 65.9819 26.95H58.1159V25.312H64.5059L63.4259 25.798C63.4259 25.294 63.3239 24.856 63.1199 24.484C62.9159 24.112 62.6339 23.824 62.2739 23.62C61.9139 23.404 61.4939 23.296 61.0139 23.296C60.5339 23.296 60.1079 23.404 59.7359 23.62C59.3759 23.824 59.0939 24.118 58.8899 24.502C58.6859 24.874 58.5839 25.318 58.5839 25.834V26.266C58.5839 26.794 58.6979 27.262 58.9259 27.67C59.1659 28.066 59.4959 28.372 59.9159 28.588C60.3479 28.792 60.8519 28.894 61.4279 28.894C61.9439 28.894 62.3939 28.816 62.7779 28.66C63.1739 28.504 63.5339 28.27 63.8579 27.958L65.3519 29.578C64.9079 30.082 64.3499 30.472 63.6779 30.748C63.0059 31.012 62.2319 31.144 61.3559 31.144ZM71.1634 31.144C70.3354 31.144 69.5374 31.048 68.7694 30.856C68.0134 30.652 67.4134 30.4 66.9694 30.1L67.9054 28.084C68.3494 28.36 68.8714 28.588 69.4714 28.768C70.0834 28.936 70.6834 29.02 71.2714 29.02C71.9194 29.02 72.3754 28.942 72.6394 28.786C72.9154 28.63 73.0534 28.414 73.0534 28.138C73.0534 27.91 72.9454 27.742 72.7294 27.634C72.5254 27.514 72.2494 27.424 71.9014 27.364C71.5534 27.304 71.1694 27.244 70.7494 27.184C70.3414 27.124 69.9274 27.046 69.5074 26.95C69.0874 26.842 68.7034 26.686 68.3554 26.482C68.0074 26.278 67.7254 26.002 67.5094 25.654C67.3054 25.306 67.2034 24.856 67.2034 24.304C67.2034 23.692 67.3774 23.152 67.7254 22.684C68.0854 22.216 68.6014 21.85 69.2734 21.586C69.9454 21.31 70.7494 21.172 71.6854 21.172C72.3454 21.172 73.0174 21.244 73.7014 21.388C74.3854 21.532 74.9554 21.742 75.4114 22.018L74.4754 24.016C74.0074 23.74 73.5334 23.554 73.0534 23.458C72.5854 23.35 72.1294 23.296 71.6854 23.296C71.0614 23.296 70.6054 23.38 70.3174 23.548C70.0294 23.716 69.8854 23.932 69.8854 24.196C69.8854 24.436 69.9874 24.616 70.1914 24.736C70.4074 24.856 70.6894 24.952 71.0374 25.024C71.3854 25.096 71.7634 25.162 72.1714 25.222C72.5914 25.27 73.0114 25.348 73.4314 25.456C73.8514 25.564 74.2294 25.72 74.5654 25.924C74.9134 26.116 75.1954 26.386 75.4114 26.734C75.6274 27.07 75.7354 27.514 75.7354 28.066C75.7354 28.666 75.5554 29.2 75.1954 29.668C74.8354 30.124 74.3134 30.484 73.6294 30.748C72.9574 31.012 72.1354 31.144 71.1634 31.144ZM82.0759 31.144C81.0439 31.144 80.1259 30.928 79.3219 30.496C78.5299 30.064 77.8999 29.476 77.4319 28.732C76.9759 27.976 76.7479 27.118 76.7479 26.158C76.7479 25.186 76.9759 24.328 77.4319 23.584C77.8999 22.828 78.5299 22.24 79.3219 21.82C80.1259 21.388 81.0439 21.172 82.0759 21.172C83.0959 21.172 84.0079 21.388 84.8119 21.82C85.6159 22.24 86.2459 22.822 86.7019 23.566C87.1579 24.31 87.3859 25.174 87.3859 26.158C87.3859 27.118 87.1579 27.976 86.7019 28.732C86.2459 29.476 85.6159 30.064 84.8119 30.496C84.0079 30.928 83.0959 31.144 82.0759 31.144ZM82.0759 28.84C82.5439 28.84 82.9639 28.732 83.3359 28.516C83.7079 28.3 84.0019 27.994 84.2179 27.598C84.4339 27.19 84.5419 26.71 84.5419 26.158C84.5419 25.594 84.4339 25.114 84.2179 24.718C84.0019 24.322 83.7079 24.016 83.3359 23.8C82.9639 23.584 82.5439 23.476 82.0759 23.476C81.6079 23.476 81.1879 23.584 80.8159 23.8C80.4439 24.016 80.1439 24.322 79.9159 24.718C79.6999 25.114 79.5919 25.594 79.5919 26.158C79.5919 26.71 79.6999 27.19 79.9159 27.598C80.1439 27.994 80.4439 28.3 80.8159 28.516C81.1879 28.732 81.6079 28.84 82.0759 28.84ZM89.2628 31V17.644H92.0708V31H89.2628ZM97.3049 31L93.2369 21.316H96.1349L99.5189 29.65H98.0789L101.589 21.316H104.289L100.203 31H97.3049ZM109.977 31.144C108.873 31.144 107.901 30.928 107.061 30.496C106.233 30.064 105.591 29.476 105.135 28.732C104.679 27.976 104.451 27.118 104.451 26.158C104.451 25.186 104.673 24.328 105.117 23.584C105.573 22.828 106.191 22.24 106.971 21.82C107.751 21.388 108.633 21.172 109.617 21.172C110.565 21.172 111.417 21.376 112.173 21.784C112.941 22.18 113.547 22.756 113.991 23.512C114.435 24.256 114.657 25.15 114.657 26.194C114.657 26.302 114.651 26.428 114.639 26.572C114.627 26.704 114.615 26.83 114.603 26.95H106.737V25.312H113.127L112.047 25.798C112.047 25.294 111.945 24.856 111.741 24.484C111.537 24.112 111.255 23.824 110.895 23.62C110.535 23.404 110.115 23.296 109.635 23.296C109.155 23.296 108.729 23.404 108.357 23.62C107.997 23.824 107.715 24.118 107.511 24.502C107.307 24.874 107.205 25.318 107.205 25.834V26.266C107.205 26.794 107.319 27.262 107.547 27.67C107.787 28.066 108.117 28.372 108.537 28.588C108.969 28.792 109.473 28.894 110.049 28.894C110.565 28.894 111.015 28.816 111.399 28.66C111.795 28.504 112.155 28.27 112.479 27.958L113.973 29.578C113.529 30.082 112.971 30.472 112.299 30.748C111.627 31.012 110.853 31.144 109.977 31.144ZM116.526 31V21.316H119.208V24.052L118.83 23.26C119.118 22.576 119.58 22.06 120.216 21.712C120.852 21.352 121.626 21.172 122.538 21.172V23.764C122.418 23.752 122.31 23.746 122.214 23.746C122.118 23.734 122.016 23.728 121.908 23.728C121.14 23.728 120.516 23.95 120.036 24.394C119.568 24.826 119.334 25.504 119.334 26.428V31H116.526Z" fill="#191963"/>
<path d="M180 33.75V16.25L189 24.75L180 33.75Z" fill="#191963" stroke="#191963"/>
</svg>
