<svg width="65" height="65" viewBox="0 0 65 65" fill="none" xmlns="http://www.w3.org/2000/svg">
<g clip-path="url(#clip0_115_658)">
<rect width="65" height="65" fill="white"/>
<path fill-rule="evenodd" clip-rule="evenodd" d="M0 0H65V65H0V0ZM32.5 16.25C41.4375 16.25 48.75 23.5625 48.75 32.5C48.75 40.625 42.8594 47.5312 34.7344 48.75V37.1719H38.5938L39.4062 32.5H34.9375V29.4531C34.9375 28.2344 35.5469 27.0156 37.5781 27.0156H39.6094V22.9531C39.6094 22.9531 37.7812 22.5469 35.9531 22.5469C32.2969 22.5469 29.8594 24.7812 29.8594 28.8438V32.5H25.7969V37.1719H29.8594V48.5469C22.1406 47.3281 16.25 40.625 16.25 32.5C16.25 23.5625 23.5625 16.25 32.5 16.25Z" fill="#191963"/>
</g>
<defs>
<clipPath id="clip0_115_658">
<rect width="65" height="65" fill="white"/>
</clipPath>
</defs>
</svg>
