<svg width="37" height="37" viewBox="0 0 37 37" fill="none" xmlns="http://www.w3.org/2000/svg">
<g id="phone">
<path id="Vector" d="M3.70001 5.54995C3.70001 5.0593 3.89492 4.58875 4.24186 4.2418C4.58881 3.89486 5.05936 3.69995 5.55001 3.69995H9.53306C9.97097 3.70015 10.3946 3.85569 10.7286 4.13888C11.0626 4.42208 11.2853 4.81457 11.3572 5.24655L12.7262 13.4513C12.7916 13.8421 12.7298 14.2435 12.55 14.5965C12.3701 14.9495 12.0817 15.2355 11.7272 15.4123L8.86336 16.8424C9.89031 19.3873 11.4198 21.6991 13.3603 23.6397C15.3008 25.5802 17.6127 27.1096 20.1576 28.1366L21.5895 25.2728C21.7662 24.9186 22.0519 24.6304 22.4045 24.4506C22.7572 24.2708 23.1582 24.2088 23.5487 24.2738L31.7534 25.6428C32.1854 25.7146 32.5779 25.9373 32.8611 26.2713C33.1443 26.6054 33.2998 27.029 33.3 27.4669V31.4499C33.3 31.9406 33.1051 32.4112 32.7582 32.7581C32.4112 33.105 31.9407 33.2999 31.45 33.2999H27.75C14.467 33.2999 3.70001 22.5329 3.70001 9.24995V5.54995Z" fill="white"/>
</g>
</svg>
