<svg width="65" height="65" viewBox="0 0 65 65" fill="none" xmlns="http://www.w3.org/2000/svg">
<g clip-path="url(#clip0_115_655)">
<rect width="65" height="65" fill="white"/>
<path fill-rule="evenodd" clip-rule="evenodd" d="M25.5938 44.0781C27.625 45.2969 30.0625 45.9062 32.5 45.9062C40.0156 45.9062 45.9063 39.8125 45.9063 32.7031C45.9063 29.0469 44.6875 25.7969 42.0469 23.1563C39.4063 20.7187 36.1563 19.2969 32.5 19.2969C25.1875 19.2969 19.0937 25.3906 19.0937 32.7031C19.0937 35.1406 19.7031 37.5781 21.125 39.8125L21.5313 40.4219L20.1094 45.2969L25.1875 43.875L25.5938 44.0781ZM36.9688 34.5312C37.375 34.5312 39.4063 35.5469 39.8125 35.75C39.8758 35.7816 39.939 35.8083 40.0015 35.8347C40.3403 35.9777 40.6566 36.1113 40.8281 36.9687C41.0313 36.9687 41.0312 37.7812 40.625 38.7969C40.4219 39.6094 38.7969 40.625 37.9844 40.625C37.8467 40.625 37.7149 40.6367 37.5741 40.6491C36.8838 40.7102 35.9774 40.7904 33.1094 39.6094C29.5497 38.1855 27.0817 34.7342 26.3886 33.765C26.2907 33.6281 26.2282 33.5408 26.2031 33.5156C26.1685 33.4465 26.0986 33.3361 26.0064 33.1905C25.557 32.481 24.5781 30.9354 24.5781 29.25C24.5781 27.2188 25.5937 26.2031 26 25.7969C26.4062 25.3906 26.8125 25.3906 27.0156 25.3906H27.8281C28.0313 25.3906 28.4375 25.3906 28.6406 26C29.0469 26.8125 29.8594 28.8437 29.8594 29.0469C29.8594 29.1146 29.882 29.1823 29.9045 29.25C29.9497 29.3854 29.9948 29.5208 29.8594 29.6562C29.7578 29.7578 29.707 29.8594 29.6563 29.9609C29.6055 30.0625 29.5547 30.1641 29.4531 30.2656L28.8438 30.875C28.6407 31.0781 28.4375 31.2813 28.6406 31.6875C28.8438 32.0938 29.6563 33.5156 30.875 34.5312C32.2463 35.7312 33.3283 36.2078 33.8769 36.4494C33.9783 36.4941 34.0616 36.5308 34.125 36.5625C34.5312 36.5625 34.7344 36.5625 34.9375 36.3594C35.0391 36.1563 35.293 35.8516 35.5469 35.5469C35.8008 35.2422 36.0547 34.9375 36.1562 34.7344C36.3593 34.3281 36.5625 34.3281 36.9688 34.5312Z" fill="#191963"/>
<path fill-rule="evenodd" clip-rule="evenodd" d="M0 0H65V65H0V0ZM32.5 16.25C36.7656 16.25 40.8281 17.875 43.875 20.9219C46.9219 23.9688 48.75 28.0313 48.75 32.2969C48.75 41.2344 41.4375 48.5469 32.5 48.5469C29.8594 48.5469 27.2188 47.7344 24.7813 46.5156L16.25 48.75L18.4844 40.625C17.0625 38.1875 16.25 35.3438 16.25 32.5C16.25 23.5625 23.5625 16.25 32.5 16.25Z" fill="#191963"/>
</g>
<defs>
<clipPath id="clip0_115_655">
<rect width="65" height="65" fill="white"/>
</clipPath>
</defs>
</svg>
