<svg width="37" height="37" viewBox="0 0 37 37" fill="none" xmlns="http://www.w3.org/2000/svg">
<g id="location-marker">
<path id="Vector" fill-rule="evenodd" clip-rule="evenodd" d="M9.34251 7.4925C11.7712 5.06378 15.0653 3.69934 18.5 3.69934C21.9347 3.69934 25.2288 5.06378 27.6575 7.4925C30.0862 9.92122 31.4507 13.2153 31.4507 16.65C31.4507 20.0847 30.0862 23.3788 27.6575 25.8075L18.5 34.965L9.34251 25.8075C8.13985 24.605 7.18584 23.1773 6.53496 21.6061C5.88408 20.0348 5.54907 18.3507 5.54907 16.65C5.54907 14.9493 5.88408 13.2652 6.53496 11.6939C7.18584 10.1227 8.13985 8.69504 9.34251 7.4925ZM18.5 20.35C19.4813 20.35 20.4224 19.9602 21.1163 19.2663C21.8102 18.5724 22.2 17.6313 22.2 16.65C22.2 15.6687 21.8102 14.7276 21.1163 14.0337C20.4224 13.3398 19.4813 12.95 18.5 12.95C17.5187 12.95 16.5776 13.3398 15.8837 14.0337C15.1898 14.7276 14.8 15.6687 14.8 16.65C14.8 17.6313 15.1898 18.5724 15.8837 19.2663C16.5776 19.9602 17.5187 20.35 18.5 20.35Z" fill="white"/>
</g>
</svg>
