<svg width="37" height="37" viewBox="0 0 37 37" fill="none" xmlns="http://www.w3.org/2000/svg">
<g id="mail">
<path id="Vector" d="M3.70554 10.8854L18.5 18.2817L33.2944 10.8854C33.2397 9.94275 32.8266 9.05668 32.1397 8.40869C31.4529 7.76071 30.5443 7.39985 29.6 7.40002H7.39999C6.45572 7.39985 5.54711 7.76071 4.86026 8.40869C4.17342 9.05668 3.7603 9.94275 3.70554 10.8854Z" fill="white"/>
<path id="Vector_2" d="M33.3 15.0183L18.5 22.4183L3.70001 15.0183V25.9C3.70001 26.8813 4.08983 27.8224 4.78372 28.5163C5.4776 29.2102 6.41871 29.6 7.40001 29.6H29.6C30.5813 29.6 31.5224 29.2102 32.2163 28.5163C32.9102 27.8224 33.3 26.8813 33.3 25.9V15.0183Z" fill="white"/>
</g>
</svg>
